<svg width="511" height="511" viewBox="0 0 511 511" fill="none" xmlns="http://www.w3.org/2000/svg">
<path fill-rule="evenodd" clip-rule="evenodd" d="M133.693 111.769C146.23 90.5851 169.03 77.5901 193.659 77.5901H319.826C345.349 77.5901 368.829 91.5364 381.025 113.94L439.234 220.871C450.65 241.841 450.516 267.195 438.879 288.044L380.008 393.52C367.705 415.564 344.424 429.226 319.165 429.226H193.501C168.242 429.226 144.961 415.564 132.658 393.52L73.2264 287.039C62.0054 266.935 61.4558 242.588 71.758 221.999L80.3615 204.804L103.374 163L133.693 111.769ZM193.659 113.686C181.8 113.686 170.823 119.943 164.787 130.143L134.754 180.89L112.354 221.581L104.068 238.141C99.1076 248.054 99.3722 259.777 104.775 269.457L164.206 375.938C170.13 386.552 181.339 393.13 193.501 393.13H319.165C331.327 393.13 342.536 386.552 348.46 375.938L407.331 270.461C412.934 260.423 412.998 248.216 407.502 238.119L343.135 131.805C337.263 121.018 332.115 113.686 319.826 113.686H193.659Z" fill="#FFE900" style="fill:#FFE900;fill:color(display-p3 1.0000 0.9137 0.0000);fill-opacity:1;"/>
<path fill-rule="evenodd" clip-rule="evenodd" d="M227.311 452.079C220.495 456.004 214.364 459.535 209.221 462.199C204.058 464.873 197.397 468.027 189.788 469.731C151.579 478.29 113.138 456.36 101.409 419.314C99.0728 411.936 98.4776 404.643 98.2164 398.875C97.9562 393.128 97.9564 386.099 97.9567 378.285L97.9567 129.715C97.9564 121.865 97.9562 114.81 98.2173 109.043C98.4791 103.26 99.0757 95.9436 101.423 88.5465C113.201 51.4246 151.793 29.5173 190.055 38.2333C197.679 39.9701 204.348 43.1628 209.512 45.8652C214.662 48.5604 220.802 52.1315 227.633 56.1045L442.388 180.999C449.1 184.902 455.149 188.42 459.971 191.52C464.823 194.639 470.807 198.8 476.014 204.475C502.195 233.015 502.101 276.634 475.798 305.063C470.567 310.717 464.564 314.852 459.699 317.951C454.864 321.031 448.8 324.523 442.071 328.398L227.311 452.079ZM423.365 211.682L209.895 87.5344C195.127 78.9457 187.743 74.6513 181.919 73.3246C162.128 68.8163 142.167 80.1476 136.074 99.3486C134.282 104.999 134.282 113.485 134.282 130.457L134.282 377.543C134.282 394.443 134.282 402.893 136.067 408.533C142.134 427.695 162.018 439.038 181.78 434.611C187.597 433.308 194.968 429.063 209.71 420.573L423.18 297.635C437.74 289.249 445.02 285.057 449.027 280.727C462.632 266.022 462.68 243.461 449.138 228.699C445.151 224.352 437.889 220.128 423.365 211.682Z" fill="#2EB3AD" style="fill:#2EB3AD;fill:color(display-p3 0.1804 0.7020 0.6784);fill-opacity:1;"/>
<path fill-rule="evenodd" clip-rule="evenodd" d="M331.917 114.115L334.735 97.7229L323.123 83.5422L309.67 77.5901C309.67 77.5901 191.105 77.2846 190.331 77.6906C189.558 78.0966 187.49 78.64 186.799 78.6605C186.799 78.6605 202.184 111.646 205.722 113.686H258.704C258.704 113.686 320.11 113.677 320.664 113.686C321.219 113.696 324.038 113.824 325.908 114.115C327.779 114.406 329.273 115.212 330.985 116.199C331.881 115.159 331.917 114.595 331.917 114.115Z" fill="#FFE900" style="fill:#FFE900;fill:color(display-p3 1.0000 0.9137 0.0000);fill-opacity:1;"/>
<path fill-rule="evenodd" clip-rule="evenodd" d="M138.071 401.762C137.396 400.816 135.481 398.419 134.841 397.272L77.5114 295.177L97.2118 250.173C97.2118 256.73 102.546 265.657 105.322 270.447L138.656 330.154L137.487 373.215C137.487 384.132 141.15 391.722 141.45 399.083L138.071 401.762Z" fill="#FFE900" style="fill:#FFE900;fill:color(display-p3 1.0000 0.9137 0.0000);fill-opacity:1;"/>
<path fill-rule="evenodd" clip-rule="evenodd" d="M380.808 384.427L387.493 380.571L436.595 292.597C438.155 289.801 442.128 282.112 443.419 278.093C436.985 282.226 427.114 286.771 417.015 292.597L387.257 306.425L348.201 376.611C343.134 385.117 333.347 391.278 328.415 395.619C323.483 399.961 380.808 384.427 380.808 384.427Z" fill="#FFE900" style="fill:#FFE900;fill:color(display-p3 1.0000 0.9137 0.0000);fill-opacity:1;"/>
</svg>
