<svg fill="none" viewBox="0 0 168 169" xmlns="http://www.w3.org/2000/svg"><g clip-rule="evenodd" fill-rule="evenodd"><path d="m27.5845 29.4479c4.8588-8.2163 13.6949-13.2564 23.2403-13.2564h48.8974c9.8918 0 18.9918 5.4091 23.7178 14.0984l22.56 41.4731c4.424 8.1335 4.372 17.9667-.138 26.053l-22.816 40.909c-4.768 8.55-13.791 13.849-23.5802 13.849h-48.7021c-9.7895 0-18.8122-5.299-23.5805-13.849l-23.03328-41.2987c-4.34878-7.7973-4.561807-17.2404-.5691-25.2259l3.33438-6.6689 8.9188-16.2136zm23.2403.7436c-4.5959 0-8.8503 2.4267-11.1898 6.3827l-11.6395 19.6823-8.6812 15.7818-3.2115 6.423c-1.9224 3.8449-1.8198 8.3915.2741 12.1458l23.0332 41.2989c2.2959 4.116 6.6401 6.668 11.3536 6.668h48.7021c4.7132 0 9.0582-2.552 11.3532-6.668l22.816-40.9093c2.172-3.8934 2.197-8.6279.067-12.544l-24.946-41.2339c-2.276-4.1838-4.271-7.0273-9.0338-7.0273z" fill="#ffe900"/><path d="m63.8671 161.437c-2.6418 1.523-5.0177 2.892-7.0113 3.925-2.001 1.038-4.5822 2.261-7.5315 2.922-14.808 3.319-29.7064-5.186-34.252-19.555-.9054-2.861-1.136-5.69-1.2373-7.927-.1008-2.229-.1007-4.955-.1006-7.986v-96.4079c-.0001-3.0445-.0002-5.781.101-8.0176.1015-2.2428.3327-5.0806 1.2423-7.9496 4.5647-14.39773 19.5214-22.89448 34.3502-19.513954 2.9549.673624 5.5393 1.911874 7.5408 2.960004 1.9961 1.04537 4.3757 2.43042 7.0231 3.97135l83.2302 48.4404c2.602 1.5139 4.946 2.8781 6.814 4.0805 1.881 1.2099 4.2 2.8234 6.218 5.0248 10.147 11.0692 10.111 27.9868-.084 39.013-2.027 2.193-4.353 3.797-6.239 4.999-1.874 1.194-4.224 2.548-6.832 4.051zm75.9829-93.238-82.7328-48.1506c-5.7236-3.3312-8.5854-4.9967-10.8425-5.5113-7.6701-1.7485-15.4063 2.6463-17.7674 10.0934-.6948 2.1916-.6948 5.4829-.6948 12.0656v95.8319c0 6.555 0 9.832.692 12.02 2.3512 7.432 10.0573 11.831 17.7166 10.114 2.2543-.505 5.111-2.152 10.8245-5.444l82.7324-47.682c5.643-3.2523 8.464-4.8784 10.017-6.5579 5.273-5.7032 5.292-14.4537.043-20.1791-1.545-1.686-4.36-3.3241-9.988-6.6z" fill="#2eb3ad"/><g fill="#ffe900"><path d="m104.408 30.3576 1.092-6.3576-4.5-5.5-5.214-2.3085s-45.9509-.1185-46.2508.039c-.3.1574-1.1014.3682-1.3693.3762 0 0 5.963 12.7933 7.3341 13.5848h20.5335s23.7985-.0038 24.0135 0 1.307.0532 2.032.1661c.725.113 1.304.4255 1.968.8083.347-.4034.361-.6219.361-.8083z"/><path d="m29.2812 141.922c-.2617-.367-1.004-1.297-1.2521-1.742l-22.21846-39.597 7.63506-17.4551c0 2.5433 2.0674 6.0053 3.143 7.8634l12.9191 23.1567-.4531 16.702c0 4.234 1.4197 7.178 1.5359 10.033z"/><path d="m123.356 135.198 2.591-1.495 19.03-34.1211c.605-1.0842 2.145-4.0663 2.645-5.6252-2.494 1.6028-6.319 3.3657-10.234 5.6252l-11.533 5.3631-15.136 27.222c-1.964 3.299-5.757 5.688-7.668 7.372-1.912 1.684 20.305-4.341 20.305-4.341z"/></g></g></svg>