<svg fill="none" height="173" viewBox="0 0 170 173" width="170" xmlns="http://www.w3.org/2000/svg"><path d="m99.7222 26.1915h-48.8974c-7.0706 0-13.6159 3.7334-17.215 9.8196l-11.695 19.7761-8.8 15.9977-3.27295 6.546c-2.95756 5.9152-2.79977 12.91.42155 18.6859l23.0333 41.2992c3.5321 6.333 10.2155 10.258 17.467 10.258h48.7021c7.2512 0 13.9352-3.925 17.4672-10.258l22.816-40.9096c3.34-5.9898 3.379-13.2737.102-19.2985l-22.56-41.4731c-3.501-6.4366-10.242-10.4433-17.5688-10.4433z" stroke="#ffe607" stroke-width="14"/><path d="m59.7721 158.194 84.1529-48.893.211-.123c3.518-2.044 6.464-3.755 8.721-5.279 2.272-1.535 4.544-3.325 6.156-5.7551 4.43-6.6756 4.448-15.3503.047-22.0447-1.602-2.4371-3.866-4.2364-6.132-5.7809-2.25-1.5337-5.188-3.2573-8.697-5.3161l-.212-.124-84.1523-49.3742-.2124-.1246c-3.5703-2.0949-6.5548-3.846-9.0257-5.0792-2.4828-1.2392-5.1927-2.35274-8.1327-2.55383-8.0608-.55135-15.6616 3.80163-19.2653 11.03313-1.3143 2.6375-1.7252 5.5383-1.9129 8.3068-.1867 2.7553-.1866 6.2155-.1866 10.3549v.2464 98.2674.246c0 4.122-.0001 7.568.186 10.313.187 2.76.5967 5.652 1.9052 8.283 3.5891 7.22 11.162 11.578 19.2073 11.055 2.9329-.191 5.6386-1.289 8.1192-2.514 2.4673-1.219 5.4472-2.95 9.0105-5.02z" stroke="#2db3ad" stroke-width="14"/><g clip-rule="evenodd" fill="#ffe607" fill-rule="evenodd"><path d="m105.177 33.7243 15.282.0314-.306-.4979-24.367-14.0663h-43.1907c-.2691 0-.5376.004-.8055.012 1.1948.6827 2.4725 1.4203 3.8436 2.2117v.0001l20.4 11.7762h25.4596c1.266 0 2.504.184 3.684.5328z"/><path d="m28.8466 144.799c-.2706-.427-.5302-.863-.7782-1.308l-22.25775-39.908 8.18935-12.083 15.0547 25.501v16.849c0 4.234 0 7.697.1162 10.552z"/><path d="m123.356 138.198 2.591-1.495 19.03-34.121c.605-1.084 1.129-2.2 1.574-3.3386-2.494 1.6026-5.647 3.4226-9.562 5.6826l-13.789 7.96-13.266 23.786c-.499.895-1.095 1.716-1.77 2.452z"/></g></svg>