<svg fill="none" height="199" viewBox="0 0 195 199" width="195" xmlns="http://www.w3.org/2000/svg"><path d="m116.009 29.5106h-60.0157c-7.0769 0-13.6269 3.74-17.2239 9.8346l-14.3987 24.3966-10.158 18.5034-4.5244 9.067c-2.94765 5.9072-2.79034 12.8888.4204 18.6568l28.2865 50.819c3.5297 6.342 10.2177 10.273 17.4753 10.273h59.8205c7.257 0 13.945-3.931 17.475-10.273l28.07-50.43c3.33-5.982 3.368-13.2519.102-19.2689l-27.752-51.1205c-3.499-6.4448-10.244-10.458-17.577-10.458z" stroke="#f1e04a" stroke-width="14"/><path d="m59.2986 186.031 113.5614-66.112.116-.067c1.908-1.111 3.508-2.042 4.767-2.84 1.265-.8 2.565-1.697 3.689-2.802 7.943-7.813 7.97-20.6102.061-28.4568-1.12-1.1106-2.416-2.0124-3.677-2.8183-1.256-.8029-2.852-1.741-4.757-2.8609l-.114-.0666-113.5613-66.7622-.1156-.0679c-1.9426-1.1421-3.5671-2.0971-4.9009-2.816-1.3358-.71984-2.7754-1.42447-4.309-1.86414-10.8207-3.10214-22.069 3.33314-24.8787 14.23344-.3982 1.5449-.5204 3.1431-.5768 4.6594-.0563 1.5144-.0563 3.3992-.0562 5.6532v.133 132.8738.133c-.0001 2.244-.0001 4.121.056 5.63.0562 1.512.178 3.105.5744 4.646 2.7978 10.877 14.0013 17.319 24.8091 14.264 1.5313-.433 2.9691-1.129 4.3039-1.841 1.3322-.711 2.9544-1.655 4.8936-2.784z" stroke="#2db3ad" stroke-width="14"/><g clip-rule="evenodd" fill="#f1e04a" fill-rule="evenodd"><path d="m131.886 38.2467-7.37-.0152c-1.933-1.1082-4.154-1.7209-6.464-1.7209h-33.1064l-24.2039-14h43.9393z"/><path d="m9.59164 120.499v3.141l22.00306 39.53c-.0031-1.124-.0031-2.312-.0031-3.568v-25.223l-14.3447-25.772c-.1725-.31-.3314-.625-.4768-.945z"/><path d="m116.379 169.606 29.504-17.066 20.447-36.735c.14-.25.274-.501.405-.754-1.418.833-2.971 1.732-4.668 2.713h-.001l-18.95 10.962-17.088 30.7c-2.294 4.122-6.642 6.678-11.359 6.678h-2.849l-2.233 3.993z"/></g></svg>