<svg width="20" height="16" viewBox="0 0 20 16" fill="none" xmlns="http://www.w3.org/2000/svg">
<path d="M15.995 8.00251H19.315L14.365 12.9525L9.41501 8.00251H13.965C13.995 6.46251 13.415 4.93251 12.235 3.75251C9.89501 1.41251 6.09501 1.41251 3.75501 3.75251C1.41501 6.09251 1.41501 9.90251 3.75501 12.2425C5.59501 14.0825 8.35501 14.4725 10.575 13.4125L12.045 14.8825C8.99501 16.6925 4.99501 16.2925 2.33501 13.6525C-0.784994 10.5325 -0.774994 5.47251 2.34501 2.35251C5.49501 -0.777494 10.525 -0.787494 13.655 2.34251C15.215 3.90251 15.995 5.95251 15.995 8.00251Z" fill="white"/>
</svg>
